<svg width="47" height="42" viewBox="0 0 47 42" fill="none" xmlns="http://www.w3.org/2000/svg">
<path d="M16.3663 26.687H5.45529C4.83529 26.6877 4.24101 26.9344 3.80261 27.3728C3.36456 27.8108 3.11788 28.4055 3.11719 29.0251V30.5838C3.11788 31.2038 3.36456 31.7981 3.80261 32.2365C4.241 32.6749 4.83528 32.9212 5.45529 32.9219H16.3663C16.9863 32.9212 17.5806 32.6749 18.019 32.2365C18.4571 31.7981 18.7037 31.2038 18.7044 30.5838V29.0251C18.7037 28.4055 18.4571 27.8108 18.019 27.3728C17.5806 26.9344 16.9863 26.6877 16.3663 26.687ZM17.1457 30.5838C17.1453 31.0142 16.7967 31.3628 16.3663 31.3632H5.45529C5.02491 31.3628 4.67628 31.0142 4.67593 30.5838V29.0251C4.67628 28.5947 5.02491 28.2461 5.45529 28.2457H16.3663C16.7967 28.2461 17.1453 28.5947 17.1457 29.0251V30.5838Z" fill="#E71E5F"/>
<path d="M11.6898 34.4807H3.89616C3.46994 34.4869 3.12758 34.8338 3.12793 35.26C3.12793 35.6862 3.46994 36.0335 3.89616 36.0394H11.6898C12.116 36.0335 12.4583 35.6862 12.4583 35.26C12.4583 34.8338 12.116 34.4869 11.6898 34.4807Z" fill="#E71E5F"/>
<path d="M43.6441 21.2315H37.4093V10.3205C37.4082 9.28744 36.997 8.2969 36.2667 7.56662C35.536 6.83597 34.5455 6.4251 33.5125 6.42368H3.8968C2.86377 6.42507 1.87322 6.83597 1.14259 7.56662C0.412286 8.29692 0.00106884 9.28744 0 10.3205V37.5981C0.00104381 38.6315 0.412295 39.6216 1.14259 40.3523C1.87323 41.0829 2.86377 41.4938 3.8968 41.4949H43.6441C44.4708 41.4942 45.2631 41.1654 45.8476 40.5808C46.432 39.9963 46.7609 39.2041 46.7616 38.3774V24.349C46.7609 23.5226 46.4321 22.73 45.8476 22.1455C45.263 21.5611 44.4708 21.2326 43.6441 21.2315ZM38.1886 22.7902V25.1283C38.1883 25.5587 37.8397 25.9073 37.4093 25.9077H34.2918C33.8614 25.9073 33.5128 25.5587 33.5125 25.1283V22.7902H38.1886ZM13.2491 7.98239H24.1602V14.2173C24.1595 14.6306 23.9952 15.0269 23.703 15.3188C23.4107 15.6111 23.0148 15.7756 22.6015 15.776H14.8079C14.3945 15.7756 13.9986 15.6111 13.7063 15.3188C13.4141 15.0269 13.2498 14.6306 13.2492 14.2173L13.2491 7.98239ZM25.3733 39.9361H3.8968C3.27679 39.9355 2.68251 39.6891 2.24411 39.2507C1.80607 38.8123 1.55939 38.2181 1.55869 37.598V10.3204C1.55939 9.70079 1.80607 9.10616 2.24411 8.66812C2.6825 8.22972 3.27678 7.98305 3.8968 7.98235H11.6904V14.2172C11.6911 15.0439 12.0199 15.8362 12.6044 16.4206C13.189 17.0051 13.9812 17.334 14.8078 17.3347H22.6014C23.4281 17.334 24.2204 17.0052 24.8048 16.4206C25.3893 15.8361 25.7182 15.0439 25.7189 14.2172V7.98235H33.5125C34.1325 7.98305 34.7268 8.22972 35.1652 8.66812C35.6032 9.10616 35.8499 9.70079 35.8506 10.3204V21.2315H28.057C27.2303 21.2325 26.438 21.561 25.8536 22.1455C25.2691 22.7301 24.9403 23.5226 24.9395 24.3489V38.3774C24.9427 38.9264 25.0923 39.4647 25.3731 39.9361L25.3733 39.9361ZM45.2029 38.3774C45.2022 38.7908 45.0379 39.1871 44.7457 39.479C44.4534 39.7712 44.0575 39.9358 43.6442 39.9361H28.057C27.6436 39.9358 27.2477 39.7712 26.9554 39.479C26.6632 39.187 26.499 38.7907 26.4983 38.3774V24.349C26.499 23.936 26.6632 23.5397 26.9554 23.2474C27.2477 22.9552 27.6437 22.7909 28.057 22.7903H31.9538V25.1283C31.9545 25.7483 32.2011 26.3426 32.6392 26.781C33.0776 27.2194 33.6719 27.4657 34.2919 27.4664H37.4093C38.0293 27.4657 38.6236 27.2194 39.062 26.781C39.5 26.3426 39.7467 25.7483 39.7474 25.1283V22.7903H43.6442C44.0576 22.7909 44.4535 22.9552 44.7457 23.2474C45.038 23.5397 45.2022 23.936 45.2029 24.349L45.2029 38.3774Z" fill="#E71E5F"/>
<path d="M42.8643 36.8187H38.1881C37.7619 36.825 37.4196 37.1719 37.4199 37.5981C37.4199 38.0243 37.7619 38.3715 38.1881 38.3774H42.8643C43.2905 38.3715 43.6329 38.0243 43.6329 37.5981C43.6329 37.1719 43.2905 36.825 42.8643 36.8187Z" fill="#E71E5F"/>
<path d="M42.8646 33.7013H35.071C34.6447 33.7075 34.3024 34.0544 34.3027 34.4806C34.3027 34.9068 34.6447 35.2541 35.071 35.26H42.8646C43.2908 35.2541 43.6331 34.9068 43.6331 34.4806C43.6331 34.0544 43.2908 33.7075 42.8646 33.7013Z" fill="#E71E5F"/>
<path d="M38.9685 5.64435C39.1752 5.64469 39.3735 5.56258 39.5196 5.41611L41.8577 3.07803C42.1579 2.77289 42.1559 2.28301 41.8532 1.98033C41.5508 1.67764 41.0606 1.67554 40.7555 1.97581L38.4174 4.31389C38.1999 4.53865 38.1363 4.87127 38.256 5.16005C38.3756 5.44918 38.6557 5.63949 38.9685 5.64437L38.9685 5.64435Z" fill="#E71E5F"/>
<path d="M35.8506 4.86496C36.0573 4.86531 36.2556 4.7832 36.4018 4.63707C36.5479 4.49059 36.63 4.29227 36.63 4.0856V0.779604C36.63 0.349219 36.281 0.000244141 35.8506 0.000244141C35.4203 0.000244141 35.0713 0.349219 35.0713 0.779604V4.0856C35.0713 4.29227 35.1534 4.49059 35.2995 4.63707C35.4457 4.7832 35.644 4.86531 35.8506 4.86496Z" fill="#E71E5F"/>
<path d="M38.9678 7.98242C38.9678 8.18909 39.0499 8.38741 39.196 8.53389C39.3421 8.68002 39.5405 8.76213 39.7471 8.76178H43.0535C43.4839 8.76178 43.8328 8.41281 43.8328 7.98242C43.8328 7.55204 43.4839 7.20306 43.0535 7.20306H39.7471C39.5405 7.20306 39.3421 7.28517 39.196 7.4313C39.0499 7.57743 38.9678 7.77575 38.9678 7.98242Z" fill="#E71E5F"/>
</svg>
