<svg width="40" height="40" viewBox="0 0 40 40" fill="none" xmlns="http://www.w3.org/2000/svg">
<path d="M17.5 32.5002H3.125C2.29657 32.4991 1.50221 32.1696 0.916286 31.584C0.330629 30.998 0.00114286 30.2037 0 29.3752V3.12524C0.00111607 2.29682 0.330636 1.50246 0.916286 0.91653C1.50222 0.330873 2.29657 0.001387 3.125 0.000244141H4.375V1.25024H3.125C2.62779 1.25024 2.15064 1.44779 1.79914 1.79935C1.44764 2.15092 1.25004 2.62807 1.25004 3.12521V29.3752C1.25004 29.8724 1.44758 30.3496 1.79914 30.7011C2.15071 31.0526 2.62786 31.2502 3.125 31.2502H17.5V32.5002Z" fill="#E91E63"/>
<path d="M5.625 0.000244141H6.87557V1.25024H5.625V0.000244141Z" fill="#E91E63"/>
<path d="M36.875 32.5002V31.2502C37.3722 31.2502 37.8494 31.0527 38.2009 30.7011C38.5524 30.3496 38.75 29.8724 38.75 29.3753V3.12527C38.75 2.62806 38.5524 2.15091 38.2009 1.79941C37.8493 1.44791 37.3721 1.2503 36.875 1.2503H8.125V0.000305176H36.875C37.7034 0.00142125 38.4978 0.330941 39.0837 0.916591C39.6694 1.50253 39.9989 2.29688 40 3.1253V29.3753C39.9989 30.2037 39.6694 30.9981 39.0837 31.584C38.4978 32.1697 37.7034 32.4992 36.875 32.5003V32.5002Z" fill="#E91E63"/>
<path d="M11.8936 34.2238L12.5188 31.7238L13.7315 32.0271L13.1062 34.5271L11.8936 34.2238Z" fill="#E91E63"/>
<path d="M17.5 37.5003H11.25C10.9049 37.5003 10.625 37.2204 10.625 36.8753V35.6253C10.625 35.1281 10.8225 34.6509 11.1741 34.2994C11.5257 33.9479 12.0028 33.7503 12.5 33.7503H17.5V35.0003H12.5C12.1548 35.0003 11.875 35.2802 11.875 35.6253V36.2503H17.5L17.5 37.5003Z" fill="#E91E63"/>
<path d="M0.625 26.2502H17.5V27.5002H0.625V26.2502Z" fill="#E91E63"/>
<path d="M2.5 28.7502H3.75V30.0002H2.5V28.7502Z" fill="#E91E63"/>
<path d="M5 28.7502H8.75V30.0002H5V28.7502Z" fill="#E91E63"/>
<path d="M34.375 40.0002H21.875C21.0466 39.9991 20.2522 39.6696 19.6663 39.084C19.0806 38.498 18.7511 37.7037 18.75 36.8752V11.8752C18.7511 11.0468 19.0806 10.2525 19.6663 9.66653C20.2522 9.08087 21.0466 8.75139 21.875 8.75024H34.375C35.2034 8.75136 35.9978 9.08088 36.5837 9.66653C37.1694 10.2525 37.4989 11.0468 37.5 11.8752V36.8752C37.4989 37.7037 37.1694 38.498 36.5837 39.084C35.9978 39.6696 35.2034 39.9991 34.375 40.0002ZM21.875 10.0002C21.3778 10.0002 20.9006 10.1978 20.5491 10.5494C20.1976 10.9009 20 11.3781 20 11.8752V36.8752C20 37.3724 20.1976 37.8496 20.5491 38.2011C20.9007 38.5526 21.3779 38.7502 21.875 38.7502H34.375C34.8722 38.7502 35.3494 38.5526 35.7009 38.2011C36.0524 37.8495 36.25 37.3724 36.25 36.8752V11.8752C36.25 11.378 36.0524 10.9009 35.7009 10.5494C35.3493 10.1979 34.8721 10.0002 34.375 10.0002H21.875Z" fill="#E91E63"/>
<path d="M31.25 15.0002H25C23.8287 15.0002 23.3381 13.9802 23.183 13.1252H19.375V11.8752H23.75C23.9157 11.8752 24.0748 11.9411 24.192 12.0583C24.3091 12.1755 24.375 12.3345 24.375 12.5002C24.375 12.5108 24.4099 13.7502 25 13.7502H31.25C31.8401 13.7502 31.875 12.5108 31.875 12.5002C31.875 12.1551 32.1549 11.8752 32.5 11.8752H36.875V13.1252H33.067C32.9119 13.9802 32.4213 15.0002 31.25 15.0002Z" fill="#E91E63"/>
<path d="M25.625 11.2502H30.625V12.5002H25.625V11.2502Z" fill="#E91E63"/>
<path d="M25.625 36.8752H30.625V38.1252H25.625V36.8752Z" fill="#E91E63"/>
<path d="M19.375 35.0002H36.875V36.2502H19.375V35.0002Z" fill="#E91E63"/>
<path d="M11.25 17.5002H8.74999C8.40485 17.5002 8.12499 17.2204 8.12499 16.8752V15.9589C7.77594 15.849 7.43749 15.7084 7.11299 15.539L6.46428 16.1877C6.22041 16.4316 5.82477 16.4316 5.58064 16.1877L3.81249 14.4196C3.56863 14.1754 3.56863 13.7798 3.81249 13.5359L4.46065 12.8872C4.29129 12.5627 4.15094 12.2243 4.04129 11.8752H3.125C2.77986 11.8752 2.5 11.5954 2.5 11.2502V8.75024C2.5 8.40509 2.77986 8.12524 3.125 8.12524H4.04129C4.15122 7.77619 4.29184 7.43774 4.46121 7.11324L3.81249 6.46452C3.56863 6.22066 3.56863 5.82501 3.81249 5.58088L5.58064 3.81274C5.82478 3.56887 6.22042 3.56887 6.46428 3.81274L7.11299 4.46089C7.43749 4.29153 7.77593 4.15119 8.12499 4.04153V3.12524C8.12499 2.7801 8.40485 2.50024 8.74999 2.50024H11.25C11.4157 2.50024 11.5748 2.56609 11.692 2.68328C11.8091 2.80047 11.875 2.95951 11.875 3.12524V4.04153C12.224 4.15147 12.5625 4.29209 12.887 4.46145L13.5357 3.81274C13.7796 3.56887 14.1752 3.56887 14.4193 3.81274L16.1875 5.58088C16.4314 5.82502 16.4314 6.22066 16.1875 6.46452L15.5393 7.11324C15.7087 7.43774 15.849 7.77618 15.9587 8.12524H16.875C17.0407 8.12524 17.1998 8.19108 17.3169 8.30827C17.4341 8.42546 17.5 8.5845 17.5 8.75024V11.2502C17.5 11.416 17.4341 11.575 17.3169 11.6922C17.1998 11.8094 17.0407 11.8752 16.875 11.8752H15.9587C15.8488 12.2243 15.7081 12.5627 15.5388 12.8872L16.1875 13.5359C16.4314 13.7798 16.4314 14.1755 16.1875 14.4196L14.4193 16.1877C14.1752 16.4316 13.7796 16.4316 13.5357 16.1877L12.887 15.5396C12.5625 15.7089 12.224 15.8493 11.875 15.9589V16.8752C11.875 17.041 11.8091 17.2 11.692 17.3172C11.5748 17.4344 11.4157 17.5002 11.25 17.5002ZM9.37499 16.2502H10.625V15.4815C10.6247 15.1894 10.8267 14.9363 11.1113 14.8716C11.659 14.7469 12.1819 14.5298 12.6568 14.2296C12.904 14.0736 13.226 14.1099 13.4325 14.3163L13.9774 14.8612L14.861 13.9776L14.3161 13.4327C14.1096 13.2262 14.0734 12.9042 14.2293 12.657C14.5296 12.1822 14.7466 11.6593 14.8714 11.1115C14.9361 10.8269 15.1892 10.6249 15.4813 10.6252H16.25V9.37521H15.4813C15.1892 9.37549 14.9361 9.17349 14.8714 8.88889C14.7466 8.34117 14.5296 7.81831 14.2293 7.34339C14.0734 7.09618 14.1096 6.77419 14.3161 6.56774L14.861 6.02282L13.9774 5.13889L13.4325 5.68382V5.68409C13.226 5.89057 12.904 5.92684 12.6568 5.77087C12.1819 5.47064 11.659 5.25357 11.1113 5.12884C10.8267 5.06411 10.6247 4.81104 10.625 4.51891V3.75019H9.37499V4.51891C9.37527 4.81104 9.17326 5.06411 8.88866 5.12884C8.34095 5.25357 7.81809 5.47064 7.34316 5.77087C7.09596 5.92684 6.77396 5.89057 6.56752 5.68409L6.0226 5.13917L5.13867 6.02282L5.68359 6.56774H5.68387C5.89034 6.77421 5.92661 7.09619 5.77064 7.34338C5.47042 7.81827 5.25334 8.34117 5.12862 8.88888C5.06389 9.17348 4.81082 9.37549 4.51869 9.37521H3.74997V10.6252H4.51869C4.81081 10.6249 5.06389 10.8269 5.12862 11.1115C5.25334 11.6593 5.47042 12.1821 5.77064 12.657C5.92661 12.9042 5.89034 13.2262 5.68387 13.4327L5.13895 13.9776L6.02259 14.8612L6.56751 14.3163C6.77399 14.1098 7.09597 14.0736 7.34316 14.2296C7.81804 14.5298 8.34094 14.7469 8.88866 14.8716C9.17326 14.9363 9.37526 15.1894 9.37499 15.4815L9.37499 16.2502Z" fill="#E91E63"/>
<path d="M10 13.1252C9.17129 13.1252 8.37643 12.796 7.79014 12.2101C7.20421 11.6239 6.875 10.829 6.875 10.0002C6.875 9.17153 7.20424 8.37667 7.79014 7.79039C8.37636 7.20445 9.17129 6.87524 10 6.87524C10.8287 6.87524 11.6236 7.20449 12.2099 7.79039C12.7958 8.3766 13.125 9.17153 13.125 10.0002C13.1239 10.8287 12.7944 11.623 12.2087 12.209C11.6228 12.7946 10.8284 13.1241 10 13.1252ZM10 8.12524C9.50279 8.12524 9.02564 8.32279 8.67414 8.67435C8.32264 9.02592 8.12504 9.50306 8.12504 10.0002C8.12504 10.4974 8.32258 10.9746 8.67414 11.3261C9.02571 11.6776 9.50286 11.8752 10 11.8752C10.4971 11.8752 10.9744 11.6776 11.3259 11.3261C11.6774 10.9745 11.875 10.4974 11.875 10.0002C11.875 9.50306 11.6774 9.02585 11.3259 8.67435C10.9743 8.32285 10.4971 8.12524 10 8.12524Z" fill="#E91E63"/>
<path d="M10.625 25.6252H9.375V23.1252C9.375 22.7801 9.65486 22.5002 10 22.5002H10.9163C11.0262 22.1512 11.1668 21.8127 11.3362 21.4882L10.6875 20.8395C10.4436 20.5957 10.4436 20.2 10.6875 19.9559L12.4556 18.1877C12.6998 17.9439 13.0954 17.9439 13.3393 18.1877L13.988 18.8359C14.3125 18.6665 14.6509 18.5262 15 18.4165V17.5002C15 17.1551 15.2798 16.8752 15.625 16.8752H18.125V18.1252H16.25V18.894C16.2503 19.1861 16.0483 19.4392 15.7637 19.5039C15.216 19.6286 14.6931 19.8457 14.2182 20.1459C13.971 20.3019 13.649 20.2656 13.4425 20.0591L12.8976 19.5142L12.014 20.3979L12.5589 20.9428C12.7653 21.1493 12.8016 21.4712 12.6456 21.7184C12.3454 22.1933 12.1283 22.7162 12.0036 23.2639C11.9389 23.5485 11.6858 23.7505 11.3937 23.7503H10.625L10.625 25.6252Z" fill="#E91E63"/>
<path d="M15 24.3752H13.75C13.7511 23.5468 14.0806 22.7525 14.6663 22.1665C15.2522 21.5809 16.0466 21.2514 16.875 21.2502V22.5002C16.3778 22.5002 15.9006 22.6978 15.5491 23.0494C15.1976 23.4009 15 23.8781 15 24.3752L15 24.3752Z" fill="#E91E63"/>
<path d="M28.125 31.2502C26.3016 31.2502 24.553 30.5259 23.2636 29.2366C21.9743 27.9472 21.25 26.1987 21.25 24.3752C21.25 22.5518 21.9744 20.8032 23.2636 19.5139C24.553 18.2245 26.3016 17.5002 28.125 17.5002C29.9484 17.5002 31.697 18.2246 32.9864 19.5139C34.2757 20.8032 35 22.5518 35 24.3752C34.9978 26.1981 34.2729 27.9452 32.9841 29.2343C31.695 30.5231 29.9478 31.248 28.125 31.2502ZM28.125 18.7502C26.6331 18.7502 25.2023 19.3429 24.1476 20.3978C23.0926 21.4525 22.5 22.8833 22.5 24.3752C22.5 25.8672 23.0926 27.298 24.1476 28.3527C25.2023 29.4077 26.6331 30.0002 28.125 30.0002C29.6169 30.0002 31.0477 29.4076 32.1024 28.3527C33.1574 27.298 33.75 25.8672 33.75 24.3752C33.748 22.8839 33.1549 21.4542 32.1004 20.3998C31.046 19.3455 29.6164 18.7522 28.125 18.7502Z" fill="#E91E63"/>
<path d="M26.8749 28.7503C26.7091 28.7503 26.5501 28.6844 26.4329 28.5672L23.3079 25.4422C23.064 25.1981 23.064 24.8025 23.3079 24.5583L25.1829 22.6833C25.427 22.4395 25.8227 22.4395 26.0668 22.6833L26.8748 23.4916L30.1828 20.1836V20.1833C30.427 19.9395 30.8226 19.9395 31.0668 20.1833L32.9418 22.0583C33.1856 22.3025 33.1856 22.6981 32.9418 22.9423L27.3168 28.5673C27.1996 28.6844 27.0405 28.7503 26.8748 28.7503L26.8749 28.7503ZM24.6335 25.0003L26.8749 27.2416L31.6162 22.5003L30.6249 21.5089L27.3169 24.8169V24.8172C27.0727 25.0611 26.6771 25.0611 26.4329 24.8172L25.6249 24.0089L24.6335 25.0003Z" fill="#E91E63"/>
<path d="M35.625 2.50024H36.875V3.75024H35.625V2.50024Z" fill="#E91E63"/>
<path d="M26.25 2.50024H34.375V3.75024H26.25V2.50024Z" fill="#E91E63"/>
</svg>
