<svg width="26" height="26" viewBox="0 0 26 26" fill="none" xmlns="http://www.w3.org/2000/svg">
<path d="M12.8024 1.10702e-05C5.84114 0.106261 0.151139 5.76126 -0.000110647 12.7263C-0.0530781 15.069 0.531034 17.3821 1.68989 19.4188C1.73541 19.4984 1.80195 19.5639 1.88223 19.6083C1.9625 19.6526 2.05343 19.674 2.14505 19.6701C2.23668 19.6663 2.32547 19.6373 2.40172 19.5863C2.47798 19.5354 2.53875 19.4644 2.57739 19.3813C3.5162 17.3873 4.00158 15.2102 3.99864 13.0063C3.99643 11.6564 4.29888 10.3233 4.88346 9.10658C5.46804 7.88981 6.31967 6.82064 7.37489 5.97876C7.47839 5.89783 7.59681 5.83808 7.7234 5.80292C7.84999 5.76776 7.98227 5.75788 8.11267 5.77384C8.24308 5.7898 8.36907 5.83129 8.48344 5.89594C8.59782 5.96059 8.69834 6.04714 8.77926 6.15064C8.86019 6.25413 8.91994 6.37256 8.9551 6.49915C8.99026 6.62574 9.00014 6.75801 8.98418 6.88842C8.96822 7.01883 8.92673 7.14482 8.86208 7.25919C8.79743 7.37356 8.71089 7.47408 8.60739 7.55501C7.79164 8.21037 7.13373 9.0408 6.68237 9.98485C6.23101 10.9289 5.99776 11.9624 5.99989 13.0088C6.00318 16.0109 5.20717 18.9598 3.69364 21.5525C3.63754 21.6478 3.61459 21.7589 3.62838 21.8686C3.64218 21.9783 3.69194 22.0804 3.76989 22.1588C4.01989 22.4088 4.28114 22.6588 4.55114 22.8863C4.60647 22.9327 4.67123 22.9667 4.74094 22.9857C4.81065 23.0048 4.88366 23.0085 4.95495 22.9966C5.02623 22.9847 5.0941 22.9575 5.15386 22.9169C5.21362 22.8763 5.26387 22.8232 5.30114 22.7613C6.40774 20.9242 7.19355 18.9121 7.62489 16.8113C7.67777 16.5513 7.83173 16.3231 8.0529 16.1767C8.27408 16.0303 8.54435 15.9778 8.80426 16.0306C9.06418 16.0835 9.29244 16.2375 9.43883 16.4587C9.58523 16.6798 9.63777 16.9501 9.58489 17.21C9.10135 19.5805 8.21022 21.8491 6.95114 23.915C6.91563 23.9737 6.89259 24.0392 6.88346 24.1072C6.87433 24.1752 6.8793 24.2444 6.89806 24.3104C6.91682 24.3764 6.94897 24.4379 6.99251 24.4909C7.03605 24.544 7.09005 24.5875 7.15114 24.6188C7.45989 24.775 7.77614 24.92 8.09739 25.0525C8.20831 25.1 8.33268 25.1058 8.44755 25.0689C8.56242 25.0319 8.66004 24.9546 8.72239 24.8513C10.8699 21.2842 12.0031 17.1986 11.9999 13.035C11.9973 12.7783 12.0916 12.5301 12.264 12.3399C12.4364 12.1496 12.6742 12.0314 12.9299 12.0088C13.067 11.9991 13.2046 12.0179 13.3341 12.0638C13.4636 12.1097 13.5823 12.1819 13.6827 12.2757C13.7831 12.3695 13.8631 12.4831 13.9177 12.6092C13.9722 12.7353 14.0002 12.8713 13.9999 13.0088C14.0048 17.2599 12.9199 21.4413 10.8486 25.1538C10.8088 25.2249 10.7869 25.3046 10.7849 25.3861C10.7829 25.4676 10.8009 25.5484 10.8372 25.6213C10.8736 25.6943 10.9272 25.7572 10.9935 25.8047C11.0598 25.8522 11.1366 25.8828 11.2174 25.8938C11.5966 25.9463 11.9803 25.9821 12.3686 26.0013C12.462 26.0047 12.5545 25.982 12.6355 25.9356C12.7166 25.8892 12.7831 25.821 12.8274 25.7388C14.9063 21.8501 15.9958 17.5095 15.9999 13.1C16.0061 11.4438 14.7124 10.0388 13.0574 10.0075C12.6592 9.99988 12.2636 10.0716 11.8934 10.2185C11.5233 10.3653 11.1861 10.5844 10.9015 10.863C10.6169 11.1415 10.3906 11.4739 10.2358 11.8408C10.081 12.2077 10.0008 12.6018 9.99989 13C9.99806 13.2497 9.904 13.49 9.7358 13.6745C9.5676 13.8591 9.33711 13.975 9.08864 14C8.95005 14.0124 8.81041 13.9957 8.67865 13.951C8.54689 13.9063 8.4259 13.8346 8.32343 13.7404C8.22096 13.6463 8.13925 13.5319 8.08354 13.4044C8.02783 13.2769 7.99934 13.1391 7.99989 13C7.99985 12.339 8.1309 11.6845 8.38545 11.0744C8.64 10.4643 9.013 9.91077 9.48287 9.44579C9.95274 8.9808 10.5101 8.6136 11.1228 8.36544C11.7355 8.11728 12.3914 7.99307 13.0524 8.00001C15.8024 8.02876 18.0124 10.3963 17.9986 13.145C17.9865 17.2222 17.1123 21.2507 15.4336 24.9663C15.3955 25.0518 15.3822 25.1464 15.3952 25.2392C15.4082 25.332 15.447 25.4193 15.5072 25.4911C15.5674 25.5629 15.6466 25.6163 15.7357 25.6453C15.8248 25.6743 15.9202 25.6777 16.0111 25.655C16.4448 25.5522 16.8729 25.427 17.2936 25.28C17.3592 25.2567 17.4192 25.22 17.4698 25.1723C17.5204 25.1245 17.5604 25.0667 17.5874 25.0025C18.1695 23.623 18.6491 22.2025 19.0224 20.7525C19.0552 20.6253 19.1128 20.5058 19.1918 20.4008C19.2708 20.2958 19.3697 20.2075 19.4829 20.1407C19.5961 20.074 19.7213 20.0302 19.8514 20.0118C19.9815 19.9935 20.1139 20.0009 20.2411 20.0338C20.3684 20.0666 20.4879 20.1242 20.5928 20.2032C20.6978 20.2822 20.7862 20.3811 20.8529 20.4943C20.9197 20.6074 20.9635 20.7327 20.9818 20.8628C21.0002 20.9929 20.9927 21.1253 20.9599 21.2525C20.8666 21.6167 20.7666 21.9792 20.6599 22.34C20.6285 22.4439 20.6318 22.5552 20.6692 22.6571C20.7066 22.7589 20.7762 22.8459 20.8673 22.9047C20.9585 22.9636 21.0664 22.9912 21.1746 22.9833C21.2829 22.9755 21.3856 22.9326 21.4674 22.8613C23.4945 21.1206 24.936 18.7975 25.5957 16.2083C26.2555 13.6191 26.1013 10.8895 25.1543 8.39106C24.2074 5.89258 22.5135 3.74658 20.3033 2.24514C18.0932 0.743701 15.474 -0.0402407 12.8024 1.10702e-05ZM21.7499 17.135C21.7195 17.3763 21.6022 17.5982 21.42 17.7593C21.2378 17.9204 21.0031 18.0095 20.7599 18.01C20.7181 18.01 20.6764 18.0075 20.6349 18.0025C20.5045 17.9863 20.3787 17.9445 20.2645 17.8797C20.1503 17.8148 20.0499 17.728 19.9693 17.6244C19.8886 17.5207 19.8291 17.4022 19.7943 17.2755C19.7594 17.1489 19.7499 17.0166 19.7661 16.8863C19.9256 15.6007 20.0057 14.3066 20.0061 13.0113C20.0035 11.1556 19.2651 9.37662 17.953 8.06444C16.6408 6.75225 14.8618 6.01391 13.0061 6.01126C12.7136 6.01113 12.4214 6.02908 12.1311 6.06501C11.8677 6.09816 11.602 6.02532 11.3923 5.86252C11.1826 5.69971 11.0462 5.46028 11.013 5.19689C10.9799 4.93349 11.0527 4.66772 11.2155 4.45803C11.3783 4.24834 11.6177 4.11191 11.8811 4.07876C13.1482 3.92115 14.4343 4.03457 15.6543 4.41151C16.8742 4.78845 18.0001 5.42031 18.9574 6.26522C19.9147 7.11014 20.6816 8.14883 21.2072 9.31247C21.7328 10.4761 22.0051 11.7382 22.0061 13.015C22.0058 14.3923 21.9203 15.7683 21.7499 17.135Z" fill="#383838"/>
</svg>
