<svg width="32" height="28" viewBox="0 0 32 28" fill="none" xmlns="http://www.w3.org/2000/svg">
<path d="M22.0002 22.905C22.69 22.6332 23.3585 22.3102 24.0002 21.9387V27C24.0002 27.2652 23.8948 27.5195 23.7073 27.7071C23.5197 27.8946 23.2654 28 23.0002 28C22.735 28 22.4806 27.8946 22.2931 27.7071C22.1055 27.5195 22.0002 27.2652 22.0002 27V22.905ZM23.4702 11.8512L16.4702 8.11746C16.2366 7.99817 15.9656 7.97539 15.7154 8.05404C15.4652 8.1327 15.2559 8.30647 15.1327 8.53794C15.0094 8.76941 14.982 9.04004 15.0563 9.29153C15.1307 9.54302 15.3009 9.75523 15.5302 9.88246L21.3752 13L23.5002 11.8675L23.4702 11.8512ZM31.4702 8.11746L16.4702 0.117456C16.3255 0.0404155 16.1641 0.00012207 16.0002 0.00012207C15.8363 0.00012207 15.6749 0.0404155 15.5302 0.117456L0.530176 8.11746C0.370181 8.20272 0.236377 8.32988 0.143076 8.48533C0.0497749 8.64077 0.000488281 8.81866 0.000488281 8.99996C0.000488281 9.18125 0.0497749 9.35914 0.143076 9.51459C0.236377 9.67003 0.370181 9.79719 0.530176 9.88246L4.00018 11.7337V17.7862C3.99914 18.2774 4.17991 18.7516 4.50768 19.1175C6.14518 20.9412 9.81392 24 16.0002 24C18.0514 24.0169 20.0872 23.6454 22.0002 22.905V13.3337L21.3752 13L16.0002 15.8662L5.47893 10.25L3.12518 8.99996L16.0002 2.13371L28.8752 8.99996L26.5277 10.25H26.5202L23.5002 11.8675C23.6522 11.9552 23.7785 12.0815 23.8663 12.2336C23.954 12.3856 24.0002 12.5581 24.0002 12.7337V21.9387C25.3042 21.1859 26.4826 20.234 27.4927 19.1175C27.8204 18.7516 28.0012 18.2774 28.0002 17.7862V11.7337L31.4702 9.88246C31.6302 9.79719 31.764 9.67003 31.8573 9.51459C31.9506 9.35914 31.9999 9.18125 31.9999 8.99996C31.9999 8.81866 31.9506 8.64077 31.8573 8.48533C31.764 8.32988 31.6302 8.20272 31.4702 8.11746Z" fill="#383838"/>
</svg>
