<svg width="27" height="27" viewBox="0 0 27 27" fill="none" xmlns="http://www.w3.org/2000/svg">
<path d="M17 0C15.4216 0.00141527 13.866 0.376096 12.4601 1.09345C11.0541 1.8108 9.8378 2.85049 8.91036 4.12763C7.98292 5.40476 7.37067 6.88314 7.12361 8.44204C6.87654 10.0009 7.00166 11.5962 7.48875 13.0975L0.2925 20.2925C0.199666 20.3854 0.126052 20.4958 0.0758639 20.6171C0.0256758 20.7385 -0.000102986 20.8686 3.09199e-07 21V26C3.09199e-07 26.2652 0.105357 26.5196 0.292893 26.7071C0.48043 26.8946 0.734784 27 1 27H6C6.26522 27 6.51957 26.8946 6.70711 26.7071C6.89464 26.5196 7 26.2652 7 26V24H9C9.26522 24 9.51957 23.8946 9.70711 23.7071C9.89464 23.5196 10 23.2652 10 23V21H12C12.1314 21.0001 12.2615 20.9743 12.3829 20.9241C12.5042 20.8739 12.6146 20.8003 12.7075 20.7075L13.9025 19.5112C15.2769 19.9575 16.7317 20.1005 18.1667 19.9306C19.6017 19.7606 20.9828 19.2817 22.2149 18.5268C23.4471 17.7718 24.501 16.7588 25.3041 15.5575C26.1071 14.3562 26.6403 12.9951 26.8669 11.5679C27.0934 10.1408 27.008 8.68145 26.6165 7.29047C26.2249 5.8995 25.5366 4.6099 24.5989 3.51048C23.6611 2.41106 22.4962 1.52794 21.1844 0.921913C19.8726 0.315889 18.445 0.00136589 17 0ZM19.5 9.5C19.1044 9.5 18.7178 9.3827 18.3889 9.16294C18.06 8.94318 17.8036 8.63082 17.6522 8.26537C17.5009 7.89991 17.4613 7.49778 17.5384 7.10982C17.6156 6.72186 17.8061 6.36549 18.0858 6.08579C18.3655 5.80608 18.7219 5.6156 19.1098 5.53843C19.4978 5.46126 19.8999 5.50087 20.2654 5.65224C20.6308 5.80362 20.9432 6.05996 21.1629 6.38886C21.3827 6.71776 21.5 7.10444 21.5 7.5C21.5 8.03043 21.2893 8.53914 20.9142 8.91421C20.5391 9.28929 20.0304 9.5 19.5 9.5Z" fill="#383838"/>
</svg>
