<svg width="41" height="39" viewBox="0 0 41 39" fill="none" xmlns="http://www.w3.org/2000/svg">
<path d="M7.62301 10.3782H28.0593C28.4436 10.3782 28.6999 10.1219 28.6999 9.73758C28.6999 9.35328 28.4436 9.09698 28.0593 9.09698H7.62301C7.23872 9.09698 6.98242 9.35328 6.98242 9.73758C6.98242 10.1219 7.23871 10.3782 7.62301 10.3782Z" fill="#E71E5F"/>
<path d="M4.22751 13.5175H14.5419C14.9262 13.5175 15.1825 13.2612 15.1825 12.8769C15.1825 12.4926 14.9262 12.2363 14.5419 12.2363H4.22751C3.84321 12.2363 3.58691 12.4926 3.58691 12.8769C3.58691 13.2615 3.84321 13.5175 4.22751 13.5175Z" fill="#E71E5F"/>
<path d="M25.1764 12.2363H17.1045C16.7202 12.2363 16.4639 12.4926 16.4639 12.8769C16.4639 13.2612 16.7202 13.5175 17.1045 13.5175H25.1764C25.5607 13.5175 25.817 13.2612 25.817 12.8769C25.817 12.4926 25.5607 12.2363 25.1761 12.2363H25.1764Z" fill="#E71E5F"/>
<path d="M26.7783 12.8766C26.7783 13.2608 27.0346 13.5171 27.4189 13.5171H31.7111C32.0954 13.5171 32.3517 13.2609 32.3517 12.8766C32.3517 12.4923 32.0954 12.236 31.7111 12.236H27.4189C27.0986 12.236 26.7783 12.5563 26.7783 12.8766Z" fill="#E71E5F"/>
<path d="M17.9373 15.2473H4.22751C3.84321 15.2473 3.58691 15.5036 3.58691 15.8879C3.58691 16.2722 3.84321 16.5285 4.22751 16.5285H17.9373C18.3216 16.5285 18.5779 16.2722 18.5779 15.8879C18.5779 15.5036 18.2576 15.2473 17.9373 15.2473Z" fill="#E71E5F"/>
<path d="M24.6641 15.8876C24.6641 15.5033 24.4078 15.247 24.0235 15.247H20.5C20.1157 15.247 19.8594 15.5033 19.8594 15.8876C19.8594 16.2719 20.1157 16.5282 20.5 16.5282H24.0235C24.4078 16.5282 24.6641 16.2722 24.6641 15.8876Z" fill="#E71E5F"/>
<path d="M31.7109 15.2473H26.2656C25.8813 15.2473 25.625 15.5036 25.625 15.8879C25.625 16.2722 25.8813 16.5285 26.2656 16.5285H31.7109C32.0952 16.5285 32.3515 16.2722 32.3515 15.8879C32.3515 15.5036 32.0952 15.2473 31.7109 15.2473Z" fill="#E71E5F"/>
<path d="M15.3751 18.5143H10.7627C10.3784 18.5143 10.1221 18.7706 10.1221 19.1549C10.1221 19.5392 10.3784 19.7955 10.7627 19.7955H15.3751C15.7594 19.7955 16.0157 19.5392 16.0157 19.1549C16.0157 18.7706 15.7594 18.5143 15.3751 18.5143Z" fill="#E71E5F"/>
<path d="M4.22751 19.7955H8.51968C8.90397 19.7955 9.16027 19.5392 9.16027 19.1549C9.16027 18.7706 8.90398 18.5143 8.51968 18.5143H4.22751C3.84321 18.5143 3.58691 18.7706 3.58691 19.1549C3.58691 19.5392 3.84321 19.7955 4.22751 19.7955Z" fill="#E71E5F"/>
<path d="M15.3753 21.1411H14.1582C13.7739 21.1411 13.5176 21.3973 13.5176 21.7816C13.5176 22.1659 13.7739 22.4222 14.1582 22.4222H15.3753C15.7596 22.4222 16.0159 22.1659 16.0159 21.7816C16.0159 21.3974 15.7596 21.1411 15.3753 21.1411Z" fill="#E71E5F"/>
<path d="M11.9152 21.1411H4.22751C3.84321 21.1411 3.58691 21.3973 3.58691 21.7816C3.58691 22.1659 3.84321 22.4222 4.22751 22.4222H11.9152C12.2995 22.4222 12.5558 22.1659 12.5558 21.7816C12.5558 21.3974 12.2355 21.1411 11.9152 21.1411Z" fill="#E71E5F"/>
<path d="M35.6188 19.8598V2.11439C35.6188 1.08952 34.7859 0.192627 33.697 0.192627H1.92177C0.832868 0.192627 0 1.0255 0 2.1147V29.7902C0 30.9433 0.768918 31.8402 1.79379 31.8402H21.589C22.9342 35.8118 26.6498 38.6307 31.0065 38.6307C36.5158 38.6307 41 34.2103 41 28.7007C41 24.8568 38.8219 21.5256 35.6187 19.8601L35.6188 19.8598ZM1.92199 1.47413H33.6972C34.0175 1.47413 34.3378 1.73042 34.3378 2.11473V5.63828L1.28131 5.63798V2.11473C1.28131 1.73014 1.5376 1.47414 1.9219 1.47414L1.92199 1.47413ZM1.79399 30.5585C1.5377 30.5585 1.2814 30.2382 1.2814 29.7895V6.91907H34.3379V19.2834C33.3131 18.8991 32.1598 18.7068 31.0067 18.7068C25.4973 18.7068 21.0132 23.1913 21.0132 28.7003C21.0132 29.3409 21.0772 29.9815 21.2055 30.558L1.79399 30.5585ZM31.0067 37.349C26.2019 37.349 22.2944 33.4412 22.2944 28.6368C22.2944 23.8323 26.2663 19.9887 31.0067 19.9887C35.7471 19.9887 39.7189 23.8966 39.7189 28.701C39.7189 33.5053 35.8111 37.349 31.0067 37.349Z" fill="#E71E5F"/>
<path d="M27.5466 26.4579L23.5108 28.572C23.2545 28.7 23.0625 28.9563 23.0625 29.2766C23.0625 29.5969 23.2548 29.8532 23.5108 29.9812L27.5466 32.0952C27.9949 32.2875 28.5076 32.0312 28.5076 31.5187C28.5076 31.2624 28.3796 31.0704 28.1233 30.9421L24.856 29.2763L28.1233 27.6106C28.3156 27.4826 28.5076 27.2903 28.5076 27.034C28.5078 26.5863 27.9953 26.266 27.5466 26.458V26.4579Z" fill="#E71E5F"/>
<path d="M32.6723 24.6006C32.416 24.6006 32.1597 24.7929 32.0317 25.0489L29.4051 31.8394C29.2128 32.2877 29.5331 32.7363 30.0457 32.7363C30.3019 32.7363 30.5582 32.544 30.6862 32.288L33.3129 25.4975C33.4412 25.1132 33.1209 24.6006 32.6723 24.6006Z" fill="#E71E5F"/>
<path d="M33.5684 27.0348C33.5684 27.2911 33.6964 27.4831 33.9527 27.6114L37.22 29.2771L33.953 30.8786C33.7607 31.0066 33.5687 31.1989 33.5687 31.4552C33.5687 31.9678 34.0813 32.2241 34.5296 32.0318L38.5654 29.9817C38.8217 29.8537 39.0137 29.5974 39.0137 29.2771C39.0137 28.9568 38.8214 28.7006 38.5654 28.5726L34.5293 26.4582C34.081 26.2662 33.5684 26.5865 33.5684 27.0348L33.5684 27.0348Z" fill="#E71E5F"/>
<path d="M30.4306 4.16449H31.7118C32.0961 4.16449 32.3524 3.90819 32.3524 3.52389C32.3524 3.13959 32.0961 2.8833 31.7118 2.8833H30.4306C30.0463 2.8833 29.79 3.13959 29.79 3.52389C29.79 3.90819 30.1103 4.16449 30.4306 4.16449Z" fill="#E71E5F"/>
<path d="M25.6894 4.16449H26.9706C27.3549 4.16449 27.6112 3.90819 27.6112 3.52389C27.6112 3.13959 27.3549 2.8833 26.9706 2.8833H25.6894C25.3051 2.8833 25.0488 3.13959 25.0488 3.52389C25.0488 3.90819 25.3051 4.16449 25.6894 4.16449Z" fill="#E71E5F"/>
</svg>
